<svg xmlns="http://www.w3.org/2000/svg" width="22.5" height="18" viewBox="0 0 22.5 18">
  <path id="fiber_new-24px" d="M22.25,4h-18A2.233,2.233,0,0,0,2.011,6.25L2,19.75A2.242,2.242,0,0,0,4.25,22h18a2.242,2.242,0,0,0,2.25-2.25V6.25A2.242,2.242,0,0,0,22.25,4ZM9.313,15.486a.9.9,0,0,1-.889.889A.885.885,0,0,1,7.7,16l-2.61-3.566v3.24a.694.694,0,0,1-.7.7.711.711,0,0,1-.709-.7V10.514a.9.9,0,0,1,.889-.889h.056A.891.891,0,0,1,5.364,10l2.542,3.566v-3.24a.7.7,0,0,1,.709-.7.694.694,0,0,1,.7.7Zm5.625-5.141a.694.694,0,0,1-.7.7H12.125V12.3H14.24a.694.694,0,0,1,.7.7v.011a.694.694,0,0,1-.7.7H12.125v1.249H14.24a.7.7,0,1,1,0,1.4H11.394a.955.955,0,0,1-.956-.956V10.559a.951.951,0,0,1,.956-.934H14.24a.694.694,0,0,1,.7.7v.023Zm7.875,4.905a1.128,1.128,0,0,1-1.125,1.125h-4.5a1.128,1.128,0,0,1-1.125-1.125V10.323a.7.7,0,1,1,1.4,0V14.7h1.271V11.436a.694.694,0,0,1,.7-.7.7.7,0,0,1,.7.7v3.251h1.26V10.323a.694.694,0,0,1,.7-.7.7.7,0,0,1,.7.7V15.25Z" transform="translate(-2 -4)" fill="#fff"/>
</svg>
