<svg xmlns="http://www.w3.org/2000/svg" width="17.509" height="18" viewBox="0 0 17.509 18">
  <path id="Path_26" data-name="Path 26" d="M17.714,11.882A7.014,7.014,0,0,0,17.777,11a7.014,7.014,0,0,0-.063-.882l1.9-1.485a.454.454,0,0,0,.108-.576l-1.8-3.114a.452.452,0,0,0-.549-.2l-2.241.9a6.576,6.576,0,0,0-1.521-.882l-.342-2.385A.439.439,0,0,0,12.827,2h-3.6a.439.439,0,0,0-.441.378L8.444,4.763a6.915,6.915,0,0,0-1.521.882l-2.241-.9a.439.439,0,0,0-.549.2l-1.8,3.114a.444.444,0,0,0,.108.576l1.9,1.485A7.137,7.137,0,0,0,4.277,11a7.137,7.137,0,0,0,.063.882l-1.9,1.485a.454.454,0,0,0-.108.576l1.8,3.114a.452.452,0,0,0,.549.2l2.241-.9a6.575,6.575,0,0,0,1.521.882l.342,2.385A.439.439,0,0,0,9.227,20h3.6a.439.439,0,0,0,.441-.378l.342-2.385a6.915,6.915,0,0,0,1.521-.882l2.241.9a.439.439,0,0,0,.549-.2l1.8-3.114a.454.454,0,0,0-.108-.576ZM11.027,14.15A3.15,3.15,0,1,1,14.177,11,3.153,3.153,0,0,1,11.027,14.15Z" transform="translate(-2.271 -2)" fill="#fff"/>
</svg>
