<svg xmlns="http://www.w3.org/2000/svg" width="14.4" height="18" viewBox="0 0 14.4 18">
  <path id="Path_23" data-name="Path 23" d="M13.531,2.531A1.806,1.806,0,0,0,12.253,2H5.8A1.805,1.805,0,0,0,4,3.8V18.2A1.8,1.8,0,0,0,5.791,20H16.6a1.805,1.805,0,0,0,1.8-1.8V8.147a1.769,1.769,0,0,0-.531-1.269L13.531,2.531ZM13.9,16.4H8.5a.9.9,0,1,1,0-1.8h5.4a.9.9,0,1,1,0,1.8Zm0-3.6H8.5a.9.9,0,1,1,0-1.8h5.4a.9.9,0,1,1,0,1.8ZM12.1,7.4V3.35L17.05,8.3H13A.9.9,0,0,1,12.1,7.4Z" transform="translate(-4 -2)" fill="#fff"/>
</svg>
